<?xml version="1.0" encoding="UTF-8"?><svg id="_レイヤー_2" xmlns="http://www.w3.org/2000/svg" viewBox="0 0 318.16 437.08"><defs><style>.cls-1,.cls-2,.cls-3,.cls-4{fill:#fff;}.cls-2{font-size:17.35px;}.cls-2,.cls-3,.cls-5,.cls-4{stroke:#fff;stroke-miterlimit:10;}.cls-2,.cls-4{font-family:BlambotProBB-Bold, 'Blambot Pro BB';font-weight:700;}.cls-3,.cls-5{stroke-width:2px;}.cls-5{fill:none;}.cls-4{font-size:17.35px;}</style></defs><circle class="cls-5" cx="159.08" cy="220.89" r="158.08"/><text class="cls-4" transform="translate(54.22 129.89) rotate(-45.19)"><tspan x="0" y="0">N</tspan></text><text class="cls-4" transform="translate(67.03 117.01) rotate(-38.06)"><tspan x="0" y="0">A</tspan></text><text class="cls-4" transform="translate(80.22 106.7) rotate(-31.43)"><tspan x="0" y="0">T</tspan></text><text class="cls-4" transform="translate(93.19 98.71) rotate(-24.9)"><tspan x="0" y="0">U</tspan></text><text class="cls-4" transform="translate(107.78 91.93) rotate(-18.37)"><tspan x="0" y="0">R</tspan></text><text class="cls-4" transform="translate(122.41 87.04) rotate(-11.9)"><tspan x="0" y="0">E</tspan></text><text class="cls-4" transform="translate(138.45 83.83) rotate(-6.67)"><tspan x="0" y="0"> </tspan></text><text class="cls-4" transform="translate(147.58 82.64) rotate(-1.73)"><tspan x="0" y="0">L</tspan></text><text class="cls-4" transform="translate(161.86 82.12) rotate(4.66)"><tspan x="0" y="0">A</tspan></text><text class="cls-4" transform="translate(178.36 83.37) rotate(11.8)"><tspan x="0" y="0">N</tspan></text><text class="cls-4" transform="translate(196.17 87.13) rotate(18.81)"><tspan x="0" y="0">D</tspan></text><text class="cls-4" transform="translate(211.07 92.11) rotate(25.72)"><tspan x="0" y="0">S</tspan></text><text class="cls-4" transform="translate(226.73 99.62) rotate(32.87)"><tspan x="0" y="0">C</tspan></text><text class="cls-4" transform="translate(241.09 108.87) rotate(39.81)"><tspan x="0" y="0">A</tspan></text><text class="cls-4" transform="translate(254 119.67) rotate(46.25)"><tspan x="0" y="0">P</tspan></text><text class="cls-4" transform="translate(264.36 130.42) rotate(52.6)"><tspan x="0" y="0">E</tspan></text><circle class="cls-5" cx="159.08" cy="219.35" r="132.12"/><path class="cls-3" d="m67.17,268.46c-.97.28-1.62.48-1.61.49,0,.02,1.53-.3,1.61-.49Z"/><path class="cls-3" d="m73.78,281.1s-.08.03-.08.03.03,0,.08-.03Z"/><path class="cls-3" d="m100.06,292.64c-.13.11-.26.21-.39.32.12-.1.25-.2.39-.32Z"/><path class="cls-3" d="m273.41,263.92c-.5.26-.91.5-1.29.73,1.73-.65,3.55-1.44,5.46-2.41-1.02.3-2.51.81-4.17,1.68Z"/><path class="cls-3" d="m255.54,267.18c-7-.61-11.65-2.57-19.79-4.54.36.01.73.03,1.1.04,1.76.07,3.28.11,5.25-.39,2.27-.58,3.73-1.53,5-2.26,2.03-1.17,5.06-2.62,9.19-3.61,0,0-6.57,1.29-14.68,2.88-4.19.82-7.96,1.56-10.64,2.09-.9-.26-1.86-.54-2.88-.85-.65-.2-1.16-.46-1.69-.77.22-.19.45-.38.69-.58,1.69-1.43,2.54-2.14,3.16-3.05,2.12-3.12,1.6-7.18,1.3-8.84-.84,3.81-1.82,7.17-2.71,7.1-.99-.08-1.62-4.42-1.91-4.35-.34.08.21,6.2-.87,6.93-.76.52-1.67.76-1.67.76,0,0,0,0,0,0-.88.18-1.61.02-2.01-.1,0,.02,0,.04-.01.06-.97-.4-2.2-.88-3.51-1.31-9.15-3.01-15.58-3.93-15.58-3.93-9.2-1.31-10.62.34-15.64-1.54-4.22-1.58-7.08-4.19-8.82-6.12-1.34-1.7-2.48-3.75-2.92-6.44-1.09-6.58-8.05-12.41-9.82-16.68-5.07-12.29,11.64-17.53,16.78-23.97-.03,0-.06,0-.09,0,2.19-1.2,4.53-2.61,8.93-3.98.93-.29,5.16-1.53,10.8-1.81,4.84-.24,6.83.43,7.89.87.51.21,2.93,1.27,4.96,3.66,1.91,2.24,1.58,3.42,3.11,5.59,1.94,2.76,4.72,4.05,6.29,4.78,2.86,1.33,6.23,1.62,12.98,2.18,2.67.22,4.13.26,4.14.21,0-.07-4.29-.74-10.51-1.58,0,0-4.74-.64-7.66-2.73-.26-.18-.84-.61-1.15-1.36-.25-.61-.2-1.15-.16-1.36.12-.78.59-1.5,1.2-1.89,1.1-.7,2.61-.29,3.15-.17,3.61.78,5.98-2.58,9.89-3.23,6.8-1.13,10.12,7.34,18.82,6.65,1.55-.12,2.43-.47,4.42-.3,3.67.3,4.88,1.82,8.67,2.27,1.87.22,3.26.05,4.91-.15,5.3-.65,8.87-2.65,8.84-2.72-.03-.07-3.25,1.84-7.5,1.5-2.18-.17-3.71-.86-4.45-1.2-1.67-.77-4.24-1.95-4.26-3.63-.02-1.93,3.33-3.28,3.85-3.49,1.45-.59,2.23-.48,3.85-.74,4.42-.72,7.63-2.97,7.53-3.18-.08-.18-2.6,1.33-6.71,1.66-2.3.19-2.94-.17-5.41.21-2.02.31-3.28.5-4.57,1.31-2.6,1.62-2.51,3.98-4.26,4.23-.94.14-1.01-.53-2.95-1.36-3.23-1.38-4.96-.37-9.49-2.19-.15-.06-.23-.09-.36-.15-1.32-.57-5.08-2.38-5.53-5.37-.6-3.95,4.88-7.91,9.33-9.53,6.28-2.28,9.36.54,12.28-1.51,6.63-4.65-1.61-24.52-1.72-24.49-.05.01.4,5.01,1.55,10.58.42,2.04.85,3.74-.16,5.29-.81,1.24-2.63,2.53-4.42,2.42-4.07-.25-4.23-7.51-11.46-15.42-4.21-4.61-8.67-7.09-9.17-6.65-.74.65,7.42,7.73,5.48,10.81-1.5,2.38-8.17,1.04-8.27,1.74-.09.69,6.66,1.03,13.18,4.68,5.12,2.87,9.03,7.18,8.27,8.32-.4.59-1.79-.08-5.57-.15-3.35-.07-6.53-.13-8.18,1.51-1.46,1.45-.32,2.81-1.15,5.67-1.17,4.06-5.48,8.22-10.31,8.39-2.36.08-5.33-.77-7-2.88-.4-.51-1.57-1.99-1.19-3.92.45-2.27,2.69-3.35,2.98-3.48.16-.18.38-.46.54-.83,1.2-2.88-3.14-6.79-3.68-6.57-.15.06,1.25,2.08.74,4.54-.32,1.53-1.23,2.48-1.47,2.72-.33.33-1.88,1.87-3.44,1.59-1.22-.22-1.44-1.39-3.19-3.63-1.81-2.31-3.7-3.79-3.93-3.63-.32.23,3.34,3.51,2.46,6.8-.04.15-.44,1.56-1.73,2.51-3.53,2.6-8.83-1.9-18.16-2.28-6.44-.27-9.63,2.36-10.8.91-1.73-2.13,1.92-8.82,5.32-8.92,1.29-.04,1.59.91,4.26,2.27,3.95,2.02,7.5,2.08,7.53,1.97.04-.15-5.19-.76-5.73-3.02-.17-.7.14-1.5.65-1.97.49-.44,1.32-.73,3.58-.4,3.39.49,3.92,1.53,5.93,1.63,3.29.18,6.22-2,6.05-2.44-.17-.44-3.07.81-7.2.76-5.22-.07-12.66-2.23-13.59-6.35-.65-2.9,1.98-6.5,4.02-6.58.62-.02.83.29,3.06,1.42,1.92.97,2.88,1.46,3.72,1.68,2.2.59,3.05-.24,6.54-.35,1.84-.06,3.16.12,4.91.35,4.75.64,5.13,1.65,8.18,1.97.59.06,5.16.47,9.33-1.97,3.82-2.23,5.43-5.75,5.24-5.9-.19-.14-2.22,2.83-6.55,4.84-1.35.63-2.5,1.15-4.09,1.21-3.28.13-7.03-1.72-7.23-3.75-.22-2.27,4.02-4.24,3.79-4.56-.27-.37-4.9,3.54-10.72,3.71-4.81.14-9.81-2.29-9.9-4.46-.05-1.21,1.45-1.39,4.91-4.84,2.87-2.87,2.79-3.7,4.59-4.53,1.56-.72,1.95-.24,6.55-.6,4.78-.38,7.38-1.14,8.51-1.51,2.3-.75,4-1.64,3.93-1.81-.12-.31-5.39,2.15-11.64,1.14-1.46-.24-3.81-.62-4.23-1.89-.53-1.61,2.25-3.86,4.42-4.99,3.9-2.03,7.52-1.33,7.53-1.66.01-.46-6.92-2.02-9.98.45-.44.36-1.13,1.06-2.46,1.81-1.52.86-1.94.68-2.77,1.39-1.27,1.08-.78,1.9-1.97,2.85-.94.74-2.45,1.2-3.6.76-.84-.32-.9-.91-1.96-2.27-.07-.09-.14-.18-.23-.29.35-.93.64-2,.72-3.16.24-3.65-1.69-6.76-1.69-6.76,0,0-2.81,2.79-3.05,6.44,0,.12,0,.24,0,.36-2.09-.65-4.22-.22-4.26.07-.04.31,2.25.17,4.09,1.66.13.11.26.22.38.34.55,2.51,1.97,4.35,1.97,4.35,0,0,.03-.04.07-.09.04.88-.18,1.72-.78,2.36-1.05,1.12-3.07,1.45-4.58.91-2.68-.95-3.27-4.44-3.44-4.38-.18.06.24,4.43,3.6,6.65,1.87,1.24,3.29.92,3.6,1.81.5,1.43-2.88,2.83-6.71,6.65-2.52,2.51-1.99,2.83-6.71,8.62-3.29,4.04-5.52,6.5-6.3,6.12-.27-.13-.19-.53-.16-4.08.02-1.74.03-2.61.07-2.8.37-1.58,6.73-8.09,6.87-8.92.31-1.78-.96-2.62-2.13-5.29-.22-.49-1.69-3.95-1.31-7.41.42-3.78,2.93-6.42,4.75-8.32.7-.73,1.32-1.28,1.91-1.76,1.56.96,2.88,1.34,2.88,1.34,0,0,.03-1.41-.44-3.14,1.05-.78,2.2-1.74,3.66-3.39,1.97-2.22,2.8-3.77,2.78-3.78-.03-.02-1.41,2.76-4.42,4.23-.46.23-1.55.76-2.78.93-.27-.55-.61-1.09-1.02-1.6-1.08-1.32-2.49-2.18-3.69-2.71-.03-.25-.04-.44-.04-.55-.25-5.25,5.2-9.29,4.91-9.53-.18-.14-2.34,1.28-4.26,3.93-1.81,2.5-1.6,4.28-2.88,5.37-.13-.03-.2-.04-.2-.04,0,0,0,.07.02.19-.11.08-.24.16-.37.23-1.47.79-3.12.46-3.93.3-2.62-.52-5.39-2.52-5.41-4.61-.17,2.25,2.26,4.17,2.63,4.46,2.39,1.9,4.28,1.25,5.24,2.87.85,1.45.07,3.22-.33,4.23-.55,1.39-1.96,3.63-3.27,3.48-1.62-.18-1.25-3.77-3.76-4.84-2.13-.91-4.95.57-4.91.76.03.15,1.82-.68,3.44,0,2.71,1.14,3.44,5.86,3.11,9.07-.24,2.3-.91,2.67-.49,4.08.52,1.75,1.48,4.39,3.48,4.85.56.13.96.04,1.11.29.37.62-1.73,1.65-2.62,3.78-.65,1.54.03,2.05-.33,3.78-.51,2.45-2.07,2.97-3.6,5.29-2.66,4.04-1.83,8.32-2.29,8.32-.21,0-.5-.89-.82-4.99-.71-1.64-1.38-3.43-1.96-5.37-1.79-5.96-2.13-11.37-1.96-15.65,3.45-4.73,3.45-7.56,2.7-9.29-.42-.96-.96-1.34-3.19-4.54-1.36-1.94-2.72-2.63-2.7-4.08.02-1.09.74-1.41.57-2.49-.18-1.21-1.16-1.56-1.8-2.57-.23-.35-.95-1.65.33-5.59,1.43-4.39,3.7-6.97,3.6-7.03-.12-.08-4,4.33-4.91,8.39-.14.62-.26,1.12-.5,2.12-.62,2.55-.95,3.82-1.22,4.01-.75.52-2.89-.28-8.41-4.92,1.45,1.49,2.05,2.56,2.27,3.34.09.32.37,1.42,1.15,2.72.47.78.75,1.02,1.3,1.8,1.08,1.52,1.07,2.43,1.72,3.19,1.98,2.32,3.77,1.88,4.91,3.4,1.31,1.73-3.65,14.75-4.17,17.24-.63,3.01.92,16.22,2.46,18.14,2.8,3.51,6.55,4.1,7.86,8.16.17.53.9,2.99-.25,5.44-1.38,2.94-4.67,4.17-6.87,4.99-3.51,1.3-7.01,2.61-10.52,3.91.85-2.18,2.39-3.7,3.89-8.22,1.27-3.83.19-3.58,1.47-7.94,1.31-4.46,2.75-6.22,1.72-8.39-1.01-2.11-3.55-2.91-3.68-2.95-2.9-.86-4.26,1.14-6.87.45-2.71-.71-4.96-3.82-4.66-6.35.28-2.37,2.55-2.48,3.44-5.44.86-2.89-.82-4.98.25-5.67,1.09-.7,2.82,1.5,5.4,1.13,2.89-.41,4.96-3.79,4.45-4.37-.4-.45-2.36,1.62-5.19,1.42-2.52-.18-4.9-2.1-5.89-4.08-2.78-5.54,4.47-13.07,3.93-13.38-.48-.28-7.16,5.3-6.87,11.79.06,1.32.39,2.7,0,4.99-.09.5-.42,2.25-2.21,5.67-3.02,5.76-3.74,5.46-3.93,7.03-.61,5.03,7.09,8.62,6.14,10.21-1.12,1.87-12.32-2.31-12.52-1.81-.15.36,5.22,3.74,12.77,4.76,4.32.58,7.87.19,8.1,1.13.28,1.13-4.78,1.84-5.89,5.22-.73,2.23.97,3.43.74,6.58-.19,2.5-1.46,4.46-2.46,5.67-.69-9.5-3.38-12.63-5.89-13.61-2.51-.98-5.69-.15-8.54-2.53-.39-.33-1.74-1.52-2.38-3.4-1.16-3.45,1.11-6.19,2.07-9.26.87-2.78,1.06-7.07-2.46-13.38.36,1.02,2.42,7.24-1.23,11.79-.63.79-1.98,2.47-4.41,3-3.17.68-5.76-1.13-6.15-1.41-3.17-2.29-3.58-6.44-2.7-9.07.4-1.19.72-1.03,1.51-2.89,1.41-3.32,1.39-6.15,1.19-6.18-.19-.03-.18,2.54-2.21,4.31-.88.77-2.65,1.81-4.02,1.31-1.5-.54-1.23-2.45-2.44-4.56-2.31-4.04-8.12-5.46-8.52-4.92-.4.53,4.5,2.95,7.61,8.39.53.93.3.69,2.46,4.99.89,1.78,1.61,2.52,1.35,3.53-.31,1.18-1.72,2.33-3.07,2.37-.3,0-.58-.04-.87-.13-.19-1.05-.55-2.2-1.2-3.26-1.17-1.91-3.02-3.09-4.27-3.73-.61-1.19-1.04-2.03-1.27-1.95-.15.05-.11.53.09,1.42-.12-.04-.18-.07-.18-.07,0,0-.21,3.61,1.71,6.73.17.27.35.53.54.78.52,1.63.9,2.46,1.53,3.38.67.97,1.54,2.24,3.19,3.18,2.34,1.33,4.08.76,4.42,1.59.46,1.13-2.13,3.86-5.4,4.54-4.79.99-8.85-2.86-9.33-2.27-.47.58,2.82,5.02,7.12,5.22,2.09.1,2.05-.92,6.38-2.04,3.34-.86,4.51-.55,8.26-1.59,1.76-.48,3.14-1.01,4.02-1.36,2.9,10.35,6.07,13.16,8.59,13.61.81.14,2.72.25,4.17,1.59,1.13,1.04,1.92,2.75,1.72,4.08-.26,1.69-2.08,3-4.36,4.05-2.17-.31-4.25-.55-6.2-.73-3.25-1.51-5.61-1.56-7.21-1.28-1.3.23-1.31.44-3.16.73-2.04.33-5.14.82-7.54-.73-.71-.46-1.12-.94-1.47-1.36-2.71-3.23-1.99-7.45-2.46-7.48-.52-.03-.8,5.32-1.96,5.44-1.47.16-3.04-8.29-3.93-8.16-.74.1-1.65,6.19,1.72,10.89,1.9,2.64,4.13,3.04,3.87,3.91-.51,1.71-10,.21-14.55-1.76-1.37-.59-2.37-1.26-3.19-2.04-.48-.45-1.29-1.31-2.21-3.18-.91-1.84-1.94-3.9-1.84-6.01.21-4.53,5.54-7.8,5.28-8.05-.23-.22-3.48,3.18-5.03,2.49-1.8-.79-.14-6.48-.61-6.58-.5-.1-3.79,5.72-3.07,12.81.34,3.35,1.38,5.08.49,5.67-1.46.97-6.16-2.39-8.72-5.67-1.13-1.44-2.96-3.44-2.7-5.9.15-1.49,1.07-3.37,1.47-4.2.37-.76.58-1.18.98-1.7.89-1.15,1.81-1.61,3.44-2.61,2.09-1.28,3.76-2.49,3.68-2.61-.1-.15-2.91,1.66-6.87,2.04-1.41.14-2.21.02-2.7-.45-.81-.77-.49-2.19-.27-3.01,1.47-5.44,5.81-10.97,5.55-11.17-.16-.11-2.38,1.31-3.81,3.86-.87,1.56-1.07,2.89-2.59,3.89-.8.53-1.56.7-1.82.76-1.15.24-2.26.06-2.95-.23-2.6-1.08-2.62-5.26-2.95-5.22-.34.05-1.23,4.81,1.6,7.48,1.54,1.46,3.1,1.26,3.97,2.91.64,1.21.65,2.9-.29,4.12-1.5,1.96-4.65,1.63-5.03,1.59-4.32-.51-6.8-5.02-7-4.88-.17.12,1.33,3.73,5.28,6.58,2.69,1.94,4.71,2.22,5.52,4.31.04.11.84,2.26-.35,3.69-1,1.21-2.86,1.24-5.42,1.3-1.5.03-3.06-.09-4.91-.45-4.15-.81-6.38-2.14-6.51-1.93-.17.28,3.2,3.09,8.07,4.39,3.82,1.02,6.95.76,7.89.71,4.34-.23,11.33,1.48,22.76,10.5-14.12,5.21-20.43,4.26-23.55,2.25-.9-.58-2.53-1.88-5.03-2.07-3.12-.23-4.42,1.52-9.07,3.11-5.06,1.73-8.53,1.36-8.51,1.81.02.52,4.57,1.38,9.49.49,3.07-.56,3.23-1.25,5.81-1.63,5.02-.75,10.81.89,10.99,2.68.17,1.7-4.73,3.66-7.25,4.4-6.25,1.82-9.38,2.73-11.82,3.42,0,0-.02,0-.02.01,0,.08,2.89.32,5.46-.03,1.53-.21,1.49-.42,4.17-1.13,2.89-.77,5.75-1.26,6.87-1.39.81-.62,5.23-3.05,8.97-4.39,6.84-2.46,8.71-.33,19.52-1.64,8.72-1.06,13.89-3.22,14.91-1.57.61.99-.7,2.67-1.47,3.67-3.94,5.12-10.83,6.28-10.8,6.35.03.08,9.92-1.47,15.96-6.35.63-.51,2.38-2,5.16-3.4,1.98-1,3.74-1.59,4.92-1.93,3.66.04,7.32.08,10.98.13,1.14.3,2.15.67,3.25,1.27,1.26.7,2.85,1.58,3.79,3.04.22,3.45.45,6.49,2.79,8.82,12.29,12.26-3.02,26.65-4.03,31.95-.04.2-.06.41-.1.61h0s0,.07,0,.1c-.07.48-.12.96-.15,1.44-.54,3.71-2.05,5.66-3.36,6.76-4.74,4-13.66,2.52-19.97,4.28-1.68.47-3.26.99-4.5,1.43,0-.02-.01-.04-.02-.06-.51.13-1.45.3-2.58.1h0s-1.16-.27-2.14-.83c-1.38-.8-.67-7.48-1.11-7.56-.37-.07-1.18,4.66-2.45,4.75-1.14.07-2.4-3.59-3.47-7.74-.39,1.8-1.05,6.23,1.66,9.63.79.99,1.88,1.77,4.05,3.33.3.22.59.43.88.63-.69.34-1.33.62-2.17.84-1.31.34-2.53.65-3.69.93-3.43-.57-8.27-1.38-13.63-2.27-10.39-1.73-18.82-3.14-18.82-3.14,5.29,1.09,9.17,2.67,11.77,3.94,1.63.79,3.49,1.83,6.4,2.46,2.53.55,4.47.5,6.73.42.48-.02.94-.03,1.41-.05-11.59,2.39-15.15,4.78-25.36,4.95-12.32.21-22.9-3.55-22.9-3.55,0,0,.51.54,1.46,1.04,6.09,3.26,9.39,5.02,14.25,5.69,5.89.81,10.86-.42,10.9-.11,0,0,0,.01,0,.02,1.16-.34,2.76-.79,4.25-1.19,3.98-1.07,4.9-1.17,7.7-1.93l-2.96,1.67-6.87,6.31-2.82,1.23-2.24,5.87,4.45-4.81,1.53-.64-1.77,5.7,3.38-6.38,4.95-2.07,5.05-7.6c3.87-.78,2.67,1.11,7.22-.44,1.68-.58,2.85-.81,3.94-.93-.97.7-1.99,1.61-2.98,2.69-2.73,3-2.97,6.96-2.97,6.96,0,0,1.26-2.53,3.99-5.54,1.91-2.1,4.55-3.46,5.6-4.38,1.34-.13,3.03-.36,5.45-.9,1.52-.34,2.55-.7,3.41-1.09,3.92-1.82,4.51-2.91,7.13-3.93,1.19-.47,1.42-.32,3.27-.33.58,0,1.98-.03,4.78-.26,1.2-.1,2.45-.27,3.64-.46,1.04-.06,3.52-.34,5.46-.57.42.12.94.32,1.39.61,1.37.9,1.38,4.7-.99,8.96-.19.34-.4.64-.62.93-.89.26-1.97.63-3.41.58-1.9-.07-3.19-.84-4.01-1.25-2.19-1.08-6.17-2.06-14.01-1.58,7.19.39,9.94,1.05,11.03,1.62.27.14,1.47.83,3.22,1.48.88.33.89.27,1.25.45,1.02.52,1.46,1.26,1.84,1.91-1.15.65-2.54,1.3-4.2,1.8-5.28,1.61-9.94.78-12.14.24,3.39.91,6.77,1.83,10.16,2.74-1.53.42-3.48,1.01-5.7,1.83-2.06.76-3.97,1.58-5.4,2.24-2.55-.59-5.91-1.18-9.9-1.36-3.7-.17-7.12.04-10.15.46-2.73-.11-4.21,0-5.92-.17-1.3-.14-3.16-.56-5.32-1.95,1.72,2.35,3.32,3.19,4.58,3.44-4.4,1.15-7.15,2.46-7.63,2.66.55-.17,4.14-1.05,8.8-1.81-.27.24-.49.48-.65.71-.29.41-.68,1.48-1.45,3.63-.37,1.01-.84,2.06-1.47,3.23-.51.96-1.32,2.32-2.57,3.87,2.06-2.3,3.32-4.33,4.09-5.75,1-1.86,1.29-2.91,2.46-4.24.66-.75,1.38-1.35,2.1-1.82,4.09-.57,8.66-.96,12.59-.7,1.76.12,3.85.39,4.21,1.43.42,1.2-1.66,2.91-3.12,3.72-2.66,1.46-5.48,1.09-6.54.9-2.67,1.94-5.88,4-9.66,5.95-5.67,2.93-10.98,4.77-15.36,5.95,8.92-1.33,15.04-3.59,19.08-5.49,1.12-.53,3.63-1.76,7.43-3.43.26-.11.5-.22.75-.33-1.98,1.07-3.19,2.26-3.98,3.33-.53.72-1.39,2.53-3.1,6.15-.97,2.04-1.62,3.53-3.02,5.52-.57.81-.78,1.02-1.65,2.18-1.42,1.92-2.47,3.53-3.14,4.62,4.56-3.63,7.07-7.05,8.53-9.56,1.72-2.95,2.09-4.82,4.27-7.72,2.34-3.1,5.06-5.14,7.02-6.39-.59.15-1.13.31-1.65.48,2.59-1.05,4.67-1.77,6.87-2.41,1.66-.48,1.47-.36,2.48-.69.06-.02.12-.04.18-.06-1.31,1.95-1.7,4.12-4.14,7.16-1.11,1.37-2.22,2.4-3.08,3.11,4.93-3.98,8.61-7.42,11.11-9.89,2.5-2.47,3.54-3.69,3.65-4.24.38-.22.78-.44,1.21-.66,3.28-1.66,4.18-1.22,6.89-2.04-.54.65-.97,1.29-1.31,1.9-.91,1.66-.91,2.63-3.12,7.15-1.03,2.11-1.83,3.52-3.11,6.39-.91,2.03-1.22,2.92-1.58,3.73-1,2.28-2.95,5.42-7.19,8.93,7.61-5.8,11.3-11.4,13.27-15.54,1.34-2.82,2.04-5.29,4.41-8.93,1.9-2.9,4.01-5.24,5.96-7.07.78-.52,1.58-1.11,2.38-1.84.23-.21.57-.53,1-1.02,0,0,0,0,0,0,0,0,0,0,0,0,.82-.91,1.98-2.41,3.42-4.9,1.64-2.83,3.02-5.22,3.82-7.15.72,5.49-.52,9.06-2.05,11.44-2.48,3.85-5.65,4.54-7.68,9.61-1.03,2.57-1.19,4.87-1.49,9.16-.24,3.47-.14,6.39,0,8.47-2.86,3.4-6.81,7.34-12.14,10.99-.89.61-1.78,1.19-2.68,1.73-1.77-.04-3.71-.27-5.75-.82-2.83-.76-4.83-1.85-7.05-3.08-5.37-2.97-7.95-5.77-8.13-5.6-.23.22,4.19,5.08,10.72,9.14,3.27,2.04,4.82,2.47,6.24,2.6-10.74,5.55-21.04,7.02-26.86,7.48,7.07-.11,16.81-1.01,27.52-4.41-.31.28-.62.56-.93.87-.54.54-1.47,1.53-3.3,3.54-1.72,1.89-2.57,2.83-3.35,3.78-1.12,1.38-2.62,3.43-4.08,6.2.54-.79,1.43-2.02,2.73-3.37,2-2.08,2.68-2.1,4.55-4.03,2.16-2.22,1.67-2.62,3.93-4.86.69-.69,1.75-1.55,3.83-3.28,0,0,.01-.01.02-.02,1.99-.72,4-1.52,6.04-2.44,2.63-1.18,5.06-2.43,7.3-3.71-.23.77-.46,1.58-.7,2.42-.44,1.54-.82,2.98-1.09,4.02-.42.34-.89.69-1.42,1.03-3.05,1.96-5.04,1.86-7.32,3.65-1.03.81-2.33,2.16-3.24,4.54,2.35-3.88,4.72-5.16,6.5-5.58.85-.2,2.15-.34,4.18-1.03.26-.09.49-.17.71-.26-.78,3.33-.69,3.69-1.22,5.2-1.23,3.53-2.57,4.09-3.83,6.87-.84,1.86-1.66,4.75-1.12,8.93.21-4.86,1.77-7.1,3.22-8.24.65-.51,1.8-1.21,2.84-2.57.13.55.36,1.17,1.04,3.12.35,1.02.64,2.13.88,3.41.2,1.05.42,2.59.4,4.52.18-2.98-.09-5.3-.38-6.87-.43-2.36-.6-2.89-.73-4.76-.03-.48-.05-.93-.05-1.37.31-.69.49-1.26.58-1.54.51-1.67.62-3.32.62-3.32,0-1.12.15-1.55.37-2.63.15-.72.28-1.22.39-1.55.43.06.9.18,1.38.38.46.19,1.21.58,2.55,2.01,1.01,1.08,1.62,1.97,2.19,2.8.65.94,1.64,2.35,2.91,4.11-.51-2.66-1.59-4.32-2.44-5.33-1.51-1.78-2.53-1.78-3.99-3.67-.82-1.07-1.29-2.1-1.61-2.93.1-.54.25-1.23.51-2.01.98-2.94,2.41-3.71,2.94-5.62.09-.32.15-.65.19-.98.01,0,.02-.02.04-.02.16-3.22.47-6.71,1.01-10.41.59-4.04,1.35-7.77,2.2-11.16,1.38-1.54,2.76-3.09,4.14-4.63,2.33,2.37-.21,9.56-.02,9.61.17.05,1.76-6.15,2.86-6.08.8.05,1.3,3.43,1.6,8.37.8-1.69,2.49-5.91.62-9.84-.55-1.15-1.43-2.15-3.19-4.14l1.21-1.35c1.19-1.84,2.39-3.68,3.58-5.52,1.23,3.63-2,5.7-1,9.57.91,3.51,4.18,4.12,3.9,7.21-.13,1.41-.71,2.42-1.49,3.61-2.25,3.41-5.65,5.27-8.04,6.25,5.81-.99,8.42-2.9,9.71-4.53.46-.58,1.35-1.88,1.86-1.72.53.17.32,1.85.19,2.92-.36,2.87-.58,4.71-2.09,5.73-.5.34-1.64.52-3.9.86-2.81.43-3.05.31-4.32.55-3.44.67-6.03,2.4-5.9,2.71.14.32,3.04-.88,3.53-.17.43.62-1.49,2.04-3.3,4.61-2.31,3.29-3.21,6.71-2.84,6.89.62.29,5.29-8.04,6.5-7.55.85.34-.52,4.84,0,4.98.6.16,1.87-5.9,6.88-8.58.39-.21,2.42-1.3,3.16-.69.59.49.15,1.87-.53,3.36-2.35,5.16-5.65,6.99-8.16,11.17-2.6,4.33-3.69,8.26-3.35,8.41.57.25,5.1-9.81,7.06-9.27,1.34.37,1.21,5.57-.19,9.61-.28.8-1.15,3.12-3.16,5.67-2.23,2.82-3.59,3.03-5.58,5.15-4.23,4.51-4.35,10.22-4.09,10.3.31.09,1.99-7.27,5.95-8.41.54-.15,1.78-.39,2.79-1.37,1.02-1,1.09-2.08,1.49-2.06.51.03.86,1.89.93,3.43.05,1.12-.06,2.07-.56,4.81-.61,3.31-.84,4.04-.68,4.09.34.11,2.24-2.92,3.28-6.66.9-3.25.3-3.97.93-8.07.71-4.62,2.35-9.45,3.26-9.36.29.03.39.55,1.2,4.04,1.02,4.39,1.16,4.81,1.3,4.81.47-.02.97-4.73.74-9.61-.15-3.34-.56-4.99-.15-8.26.08-.6.37-4.26.89-4.27.8-.02,1.05,8.46,2,8.48.7.01,2.17-4.65,1.3-9.61-.51-2.92-1.4-3.46-1.8-6.7-.4-3.25-.06-7.12.92-7.27,1.38-.21,3.45,7.2,4.09,7.04.45-.12,0-4.01-1.3-7.73-.59-1.7-.85-1.91-1.21-3.38-.69-2.81-.17-3.81-1.02-5.2-1.16-1.89-3.19-1.68-3.9-2.58-.97-1.22.96-3.87,4.12-7.17-.14,1.21-.16,2.61.11,4.15.53,3.03,1.93,5.21,2.79,6.35-.71-1.35-2.21-4.71-1.12-8.58.28-1,.69-1.86,1.12-2.58,3.15,5,3.14,8.31,2.97,9.79-.04.33-.21,1.62-.56,3.26-.71,3.32-1.53,5.06-1.3,5.15.26.1,1.64-1.88,2.66-4.22,1.17-2.67,1.33-4.56,1.61-4.54.55.04,0,7.32.59,7.38.38.04,1.36-2.87,1.52-6.07.1-2.07-.22-2.63.12-4.23.43-1.99,1.67-4.56,2.6-4.46,1.4.14,2.34,6.3,1.67,11.85-.38,3.1-1.37,5.88-3.35,11.33-1.23,3.4-2.36,6.17-3.16,8.07-2.34,5.22-3.33,7.9-2.97,8.07.47.21,3.26-3.91,8.36-12.36-.96,8.06-3.44,13.66-5.58,17.34-1.57,2.69-3.06,4.54-4.09,7.9-1.55,5.07-.85,9.72,0,12.88.21-3.96.78-7.15,1.3-9.44.35-1.55.82-3.27,2.23-4.98.43-.52,2.23-2.71,3.35-2.4,1.03.29,1.69,2.81.56,11.67.67-4.5,1.99-7.64,3.11-9.72.7-1.3,1.58-2.67,2.04-4.89.37-1.78.17-2.72.24-5.3.04-1.39.16-3.46.56-6.01.47-4.16,1.15-6.27,2.04-6.35,1.06-.09,2.43,2.71,4.09,8.41.27-2.43.38-6.08-.69-10.31-.6-2.38-1.3-3.86-1.73-4.96-1.28-3.31-2.1-8.52.37-16.65-1.48-4.71-2.97-9.42-4.45-14.13,6.01,6.89,13.15,14.07,11.68,16.25-.56.82-2.14.63-3.04,2.36-.67,1.27-.26,2.19-.8,4.77-.28,1.35-.48,1.54-.94,3.1-1.01,3.41-1.37,6.98-1.01,7.09.5.15,2.11-6.65,3.19-6.46.76.14,1.03,3.69.72,6.67-.31,2.98-1,3.47-1.41,6.15-.68,4.55.47,8.83,1.01,8.82.74-.01.94-7.79,1.56-7.78.41,0,.64,3.36.7,3.92.32,3,0,4.52-.12,7.58-.17,4.48.21,8.8.58,8.82.11,0,.22-.38,1.01-4.41.63-3.2.71-3.68.94-3.7.71-.08,1.99,4.34,2.54,8.58.49,3.76.02,4.42.72,7.4.81,3.43,2.29,6.21,2.56,6.11.12-.05-.06-.71-.53-3.75-.39-2.51-.47-3.38-.43-4.41.05-1.42.33-3.12.72-3.15.31-.02.36.97,1.16,1.89.79.9,1.76,1.12,2.17,1.26,3.09,1.05,4.4,7.8,4.64,7.72.21-.07.11-5.31-3.19-9.45-1.55-1.94-2.61-2.13-4.35-4.72-1.57-2.33-2.25-4.46-2.46-5.2-1.09-3.71-1.19-8.48-.14-8.82,1.53-.49,5.06,8.73,5.51,8.5.27-.14-.58-3.75-2.61-7.72-1.96-3.83-4.53-5.51-6.36-10.24-.53-1.37-.88-2.64-.42-3.08.58-.56,2.16.44,2.46.63,3.91,2.47,4.9,8.02,5.36,7.87.41-.13-.66-4.25,0-4.57.94-.45,4.59,7.19,5.07,6.93.29-.16-.41-3.3-2.21-6.32-1.41-2.36-2.91-3.66-2.57-4.23.38-.65,2.65.45,2.75.16.1-.29-1.92-1.87-4.6-2.48-.99-.23-1.18-.12-3.37-.51-1.77-.31-2.66-.48-3.04-.79-1.17-.94-1.35-2.63-1.63-5.26-.1-.98-.27-2.52.15-2.68.39-.15,1.09,1.04,1.45,1.57,1.01,1.49,3.04,3.24,7.58,4.16-1.86-.9-4.52-2.61-6.27-5.73-.61-1.09-1.06-2.01-1.16-3.31-.21-2.83,2.34-3.39,3.04-6.61.78-3.55-1.74-5.46-.78-8.78.93,1.69,1.86,3.38,2.79,5.06.32.41.63.83.95,1.24-1.38,1.83-2.07,2.74-2.49,3.8-1.46,3.6-.14,7.48.48,9.03.23-4.53.62-7.63,1.25-7.67.86-.06,2.09,5.62,2.23,5.58.15-.05-1.83-6.64-.02-8.81h0c1.08,1.42,2.15,2.83,3.23,4.25.66,3.11,1.26,6.53,1.72,10.24.42,3.4.66,6.6.79,9.55,0,0,.02.01.03.02.03.3.08.6.15.9.41,1.75,1.53,2.46,2.29,5.15.2.71.32,1.34.4,1.84-.24.76-.61,1.71-1.25,2.69-1.14,1.74-1.94,1.73-3.11,3.37-.67.93-1.51,2.45-1.9,4.89.99-1.62,1.76-2.9,2.27-3.77.45-.76.92-1.57,1.71-2.56,1.04-1.31,1.63-1.67,1.99-1.84.38-.19.74-.29,1.08-.35.08.3.19.76.3,1.42.17.99.29,1.39.29,2.41,0,0,.09,1.51.48,3.04.07.25.21.78.45,1.41,0,.4-.01.82-.04,1.26-.1,1.72-.23,2.21-.57,4.37-.23,1.44-.44,3.57-.3,6.3-.01-1.77.15-3.18.31-4.15.19-1.18.41-2.19.69-3.13.53-1.79.71-2.36.81-2.86.81,1.24,1.71,1.88,2.22,2.35,1.14,1.05,2.35,3.1,2.51,7.56.43-3.83-.21-6.48-.87-8.19-.98-2.55-2.03-3.07-2.99-6.3-.41-1.39-.34-1.72-.95-4.77.17.08.35.16.56.24,1.58.64,2.6.76,3.26.94,1.4.38,3.24,1.55,5.07,5.12-.71-2.18-1.73-3.43-2.53-4.17-1.78-1.64-3.33-1.55-5.71-3.35-.41-.31-.78-.63-1.11-.95-.21-.96-.51-2.27-.85-3.69-.19-.77-.37-1.51-.55-2.22,1.75,1.17,3.64,2.32,5.7,3.4,1.59.84,3.16,1.57,4.71,2.24,0,0,0,0,.02.01,1.63,1.59,2.45,2.38,2.99,3.01,1.76,2.05,1.38,2.41,3.06,4.45,1.46,1.77,1.99,1.79,3.55,3.7,1.01,1.24,1.71,2.36,2.13,3.09-1.14-2.55-2.31-4.42-3.18-5.69-.6-.87-1.27-1.73-2.61-3.46-1.43-1.85-2.16-2.75-2.57-3.25-.24-.28-.48-.54-.72-.8,8.36,3.12,15.96,3.95,21.47,4.05-4.54-.42-12.58-1.77-20.95-6.86h0c1.11-.11,2.31-.51,4.87-2.38,5.09-3.73,8.54-8.19,8.36-8.38-.14-.15-2.16,2.41-6.34,5.14-1.73,1.13-3.29,2.13-5.5,2.82-1.59.5-3.11.71-4.48.75-.7-.5-1.39-1.03-2.09-1.59-4.16-3.35-7.24-6.96-9.47-10.08.11-1.91.19-4.58,0-7.77-.23-3.93-.35-6.04-1.16-8.4-1.59-4.65-4.06-5.29-5.99-8.82-1.12-2.04-2.05-5.06-1.69-9.59.15.01.29.02.44.03.64,1.59,1.56,3.47,2.63,5.63,1.13,2.29,2.03,3.66,2.67,4.5,0,0,0,0,0,0,0,0,0,0,0,0,.34.45.61.74.78.93.62.67,1.24,1.21,1.85,1.69,1.53,1.68,3.17,3.82,4.65,6.49,1.85,3.33,2.4,5.6,3.44,8.19,1.54,3.8,4.42,8.94,10.35,14.26-3.3-3.22-4.83-6.1-5.61-8.19-.28-.75-.52-1.56-1.23-3.42-1-2.63-1.62-3.93-2.43-5.86-1.73-4.15-1.73-5.04-2.44-6.56-.26-.56-.59-1.14-1.02-1.74,2.11.75,2.82.35,5.37,1.87.34.2.65.4.95.6.08.51.89,1.62,2.84,3.89,1.95,2.26,4.82,5.42,8.66,9.07-.67-.66-1.54-1.6-2.4-2.86-1.91-2.78-2.21-4.78-3.23-6.56.05.02.09.04.14.06.79.3.64.19,1.93.63,1.71.58,3.33,1.25,5.34,2.2-.4-.15-.82-.3-1.27-.43,1.53,1.14,3.66,3.01,5.48,5.86,1.7,2.66,1.99,4.38,3.33,7.08,1.14,2.3,3.1,5.44,6.65,8.77-.52-1-1.33-2.48-2.45-4.24-.68-1.07-.84-1.26-1.29-2-1.09-1.83-1.6-3.2-2.35-5.07-1.34-3.32-2.01-4.98-2.42-5.64-.61-.97-1.55-2.06-3.09-3.04.19.1.37.19.57.29,2.97,1.54,4.93,2.67,5.8,3.15,3.15,1.75,7.93,3.82,14.89,5.04-3.42-1.09-7.56-2.78-11.99-5.46-2.95-1.79-5.46-3.68-7.54-5.46-.83.18-3.03.52-5.1-.82-1.14-.74-2.76-2.31-2.43-3.41.29-.95,1.92-1.2,3.29-1.31,3.07-.24,6.63.12,9.82.64.56.44,1.13.98,1.64,1.67.91,1.22,1.14,2.19,1.92,3.89.6,1.31,1.59,3.16,3.19,5.28-.97-1.42-1.61-2.67-2.01-3.55-.49-1.07-.86-2.03-1.14-2.96-.6-1.97-.91-2.95-1.13-3.33-.13-.22-.3-.44-.51-.65,3.63.7,6.44,1.51,6.86,1.66-.37-.19-2.52-1.38-5.95-2.44.98-.23,2.23-1,3.57-3.16-1.69,1.27-3.14,1.67-4.15,1.79-1.33.16-2.49.06-4.62.16-2.37-.38-5.03-.58-7.93-.42-3.11.17-5.73.71-7.72,1.25-1.12-.6-2.61-1.35-4.22-2.05-1.73-.75-3.25-1.3-4.45-1.68,2.64-.84,5.28-1.68,7.93-2.51-1.72.5-5.35,1.27-9.47-.22-1.29-.46-2.38-1.06-3.27-1.65.3-.6.64-1.28,1.44-1.76.28-.17.28-.11.97-.41,1.36-.6,2.3-1.22,2.51-1.36.85-.53,2.99-1.13,8.6-1.49-6.12-.44-9.22.46-10.93,1.45-.64.37-1.65,1.08-3.13,1.14-1.12.05-1.97-.3-2.66-.53-.17-.26-.33-.54-.48-.85-1.84-3.91-1.83-7.39-.77-8.22.35-.27.75-.45,1.08-.56,1.51.21,3.45.47,4.26.52.93.18,1.91.33,2.84.42,2.19.21,3.27.23,3.73.24,1.44,0,1.62-.13,2.55.3,2.04.94,2.5,1.94,5.56,3.61.67.36,1.47.69,2.66,1,1.89.5,3.21.71,4.25.83.82.84,2.88,2.09,4.37,4.02,2.13,2.75,3.11,5.08,3.11,5.08,0,0-.19-3.63-2.32-6.38-.77-.99-1.57-1.83-2.32-2.47.85.11,1.76.32,3.07.85,3.54,1.42,2.62-.31,5.63.41l3.94,6.96,3.86,1.9,2.64,5.85-1.38-5.23,1.2.59,3.47,4.41-1.75-5.39-2.2-1.13-5.36-5.79-2.31-1.54c2.19.7,2.9.78,6.01,1.77,1.17.37,2.43.79,3.33,1.1,0,0-.02-.02-.02-.02.03-.27,4.03.88,8.51.1,3.5-.61,6.3-2.23,7.37-2.91,1.48-.93,2.21-1.67,3.6-2.54-7.34,2.74-13.02,2.84-16.58,2.52Z"/><path class="cls-3" d="m253.91,270.47s-.5-.19-1.25-.44c.08.17,1.24.46,1.25.44Z"/><path class="cls-3" d="m247.49,281.62s.06.03.06.03-.03-.01-.06-.03Z"/><path class="cls-3" d="m226.99,292.2c.11.1.21.2.31.29-.11-.1-.2-.19-.31-.29Z"/><path class="cls-3" d="m60.02,204.6c.03.06.64-.13.63-.17,0-.02-.19,0-.49.03-.09.07-.15.12-.14.14Z"/><path class="cls-3" d="m176.07,116.41c-.91.74-1.83,1.78-1.82,2.99.09-1.25.96-2.27,1.82-2.99Z"/><path class="cls-3" d="m176.07,116.41c.9-.73,1.8-1.16,1.79-1.17,0,0-.9.42-1.79,1.17Z"/><path class="cls-3" d="m147.75,114.64c1.35,1.21,2.55,2.26,3.62,3.16-.87-.89-2.04-1.94-3.62-3.16Z"/><path class="cls-3" d="m158.61,131.29s-3.64.32-6.42,2.71c-2.78,2.39-3.64,5.94-3.64,5.94,0,0,3.96.05,6.73-2.34s3.32-6.3,3.32-6.3Z"/><path class="cls-3" d="m249.31,171.98s-2.62-3.48-6.63-2.21c-3.49,1.1-6.63,2.21-6.63,2.21,0,0,2.54.86,6.63,1.8,4.43,1.02,6.9-.79,6.63-1.8Z"/><path class="cls-3" d="m76.42,191.05s-.98-4.24-5.16-4.71c-3.64-.41-6.96-.67-6.96-.67,0,0,1.97,1.81,5.33,4.34,3.64,2.74,6.63,2.08,6.79,1.05Z"/><path class="cls-3" d="m117.23,150.47c-1.63,2.74-.39,6.48-.39,6.48,0,0,3.41-.98,5.04-3.72,1.63-2.74.86-6.2.86-6.2,0,0-3.88.7-5.51,3.43Z"/><path class="cls-3" d="m49.13,212.97s-3.19-1.23-6.63-2.21c-3.52-1.01-6.63,2.21-6.63,2.21,0,0,3.52.57,6.63,1.8,3.41,1.34,6.63-1.8,6.63-1.8Z"/><path class="cls-3" d="m51.21,186.12s3.83,2.26,6.93,4.93c3.39,2.93,8.36,1.55,8.36,1.55,0,0-3.19-2.71-6.76-5.32-3.66-2.67-8.52-1.17-8.52-1.17Z"/><path class="cls-3" d="m87.11,204.4c3.68-1.23,6.63-1.8,6.63-1.8,0,0-2.97-2.21-6.63-2.21s-6.63,2.21-6.63,2.21c0,0,3.16,2.96,6.63,1.8Z"/><path class="cls-3" d="m63.19,153.37s.04-3.96-2.36-6.72c-2.4-2.77-6.31-3.3-6.31-3.3,0,0,.33,3.64,2.73,6.41,2.4,2.77,5.95,3.62,5.95,3.62Z"/><path class="cls-3" d="m92.78,174.67s.04-3.96-2.36-6.72c-2.4-2.77-6.31-3.3-6.31-3.3,0,0,.33,3.64,2.73,6.41,2.4,2.77,5.95,3.62,5.95,3.62Z"/><path class="cls-3" d="m46.83,186.53s.04-3.96-2.36-6.72c-2.4-2.77-6.31-3.3-6.31-3.3,0,0,.33,3.64,2.73,6.41s5.95,3.62,5.95,3.62Z"/><path class="cls-3" d="m96,161.75c1.92,3.12,5.24,4.56,5.24,4.56,0,0,.61-3.86-1.3-6.98-1.92-3.12-5.64-4.31-5.64-4.31,0,0-.21,3.61,1.71,6.73Z"/><path class="cls-3" d="m123.54,140.82s.61-3.86-1.3-6.98c-1.92-3.12-5.64-4.31-5.64-4.31,0,0-.21,3.61,1.71,6.73,1.92,3.12,5.24,4.56,5.24,4.56Z"/><path class="cls-3" d="m148.57,148.36s-.21,3.61,1.71,6.73,5.24,4.56,5.24,4.56c0,0,.61-3.86-1.3-6.98s-5.64-4.31-5.64-4.31Z"/><path class="cls-3" d="m115.43,124.48c1.71-3.24.85-7.05.85-7.05,0,0-3.22,1.65-4.93,4.89-1.71,3.24-1.27,6.83-1.27,6.83,0,0,3.64-1.43,5.35-4.67Z"/><path class="cls-3" d="m138.39,147.82s-.98-4.24-5.16-4.71c-3.64-.41-6.96-.67-6.96-.67,0,0,1.97,1.81,5.33,4.34,3.64,2.74,6.63,2.08,6.79,1.05Z"/><path class="cls-3" d="m113.23,176.09s-3.19-1.23-6.63-2.21c-3.52-1.01-6.63,2.21-6.63,2.21,0,0,3.52.57,6.63,1.8,3.41,1.34,6.63-1.8,6.63-1.8Z"/><path class="cls-3" d="m90.52,162.41s1.51-4.08-1.72-6.77c-2.81-2.34-5.44-4.39-5.44-4.39,0,0,.65,2.6,2.07,6.55,1.53,4.28,4.4,5.38,5.1,4.61Z"/><path class="cls-3" d="m73.08,209.71s-2.73-2.38-6.37-2.77-6.81,1.35-6.81,1.35c0,0,2.68,2.85,6.32,3.24,3.64.39,6.86-1.82,6.86-1.82Z"/><path class="cls-3" d="m47.34,203.94c3.64-.36,6.4-2.69,6.4-2.69,0,0-3.2-2.21-6.84-1.84-3.64.36-6.35,3.15-6.35,3.15,0,0,3.15,1.74,6.8,1.38Z"/><path class="cls-3" d="m43.19,193.75c3.46-1.18,5.58-4.16,5.58-4.16,0,0-3.65-1.51-7.12-.33s-5.43,4.62-5.43,4.62c0,0,3.5,1.06,6.96-.13Z"/><path class="cls-3" d="m87.89,183.77c3.54.95,6.95-.33,6.95-.33,0,0-2.19-3.3-5.72-4.25-3.54-.95-7.08.8-7.08.8,0,0,2.31,2.83,5.85,3.78Z"/><path class="cls-3" d="m79.67,145.01s-2.73-2.38-6.37-2.77c-3.64-.39-6.81,1.35-6.81,1.35,0,0,2.68,2.85,6.32,3.24,3.64.39,6.86-1.82,6.86-1.82Z"/><path class="cls-3" d="m232.18,143.42c1.82,3.18,5.01,4.77,5.01,4.77,0,0,.62-3.78-1.19-6.96s-5.4-4.55-5.4-4.55c0,0-.24,3.56,1.58,6.73Z"/><path class="cls-3" d="m215.01,167.26s-.24,3.56,1.58,6.73c1.82,3.18,5.01,4.77,5.01,4.77,0,0,.62-3.78-1.19-6.96-1.82-3.18-5.4-4.55-5.4-4.55Z"/><path class="cls-3" d="m132.86,163.58s2.54-2.97,2.54-6.63-2.54-6.63-2.54-6.63c0,0-2.07,2.97-2.07,6.63s2.07,6.63,2.07,6.63Z"/><path class="cls-3" d="m79.85,162.6s.61-3.86-1.3-6.98c-1.92-3.12-5.64-4.31-5.64-4.31,0,0-.21,3.61,1.71,6.73s5.24,4.56,5.24,4.56Z"/><path class="cls-3" d="m141.21,132.34s1.01-3.81-.6-7.12c-1.61-3.31-5.24-4.86-5.24-4.86,0,0-.58,3.6,1.03,6.91,1.61,3.31,4.81,5.06,4.81,5.06Z"/><path class="cls-3" d="m230.92,170.48s.36,4.17,1.07,8.53c.73,4.47,5.24,6.82,5.24,6.82,0,0-1.14-4.3-1.46-8.38-.35-4.47-4.85-6.98-4.85-6.98Z"/><path class="cls-3" d="m235.48,200.82s2.85,3.07,6.09,6.07c3.32,3.08,8.33,2.16,8.33,2.16,0,0-3.54-2.69-6.3-5.71-3.02-3.31-8.12-2.52-8.12-2.52Z"/><path class="cls-3" d="m247.38,185.03s.56,3.66,3.16,6.23c2.6,2.57,6.27,3.09,6.27,3.09,0,0-.16-4.32-3.45-5.94-3.48-1.72-5.98-3.38-5.98-3.38Z"/><path class="cls-3" d="m141.54,117.12s2.69-2.42,3.52-5.99c.83-3.57-.52-6.93-.52-6.93,0,0-3.15,2.31-3.98,5.88s.98,7.03.98,7.03Z"/><path class="cls-3" d="m169.04,120.91s2.69-2.42,3.52-5.99-.52-6.93-.52-6.93c0,0-3.15,2.31-3.98,5.88-.83,3.57.98,7.03.98,7.03Z"/><path class="cls-3" d="m170.96,157.71s2.69-2.42,3.52-5.99c.83-3.57-.52-6.93-.52-6.93,0,0-3.15,2.31-3.98,5.88-.83,3.57.98,7.03.98,7.03Z"/><path class="cls-3" d="m155.77,114.45s-.13-2.68-.74-6.83c-.66-4.5-3.26-6.14-4.09-5.52,0,0-2.28,3.71.36,6.98,2.3,2.85,4.47,5.37,4.47,5.37Z"/><path class="cls-3" d="m185.72,116.26s1.36-2.3,3.14-6.11c1.92-4.13.66-6.92-.39-6.86,0,0-3.95,1.84-3.54,6.03.36,3.64.79,6.94.79,6.94Z"/><path class="cls-3" d="m252.09,158.44s.27,3.61,2.58,6.45c2.31,2.84,5.79,3.83,5.79,3.83,0,0,.1-3.91-2.22-6.75s-6.16-3.53-6.16-3.53Z"/><path class="cls-3" d="m181.35,107.71s.34-3.64-1.5-6.8c-1.84-3.16-5.18-4.65-5.18-4.65,0,0-.76,3.88,1.08,7.04,1.84,3.16,5.6,4.41,5.6,4.41Z"/><path class="cls-3" d="m212,149.83c-3.56.85-5.88,3.9-5.88,3.9,0,0,3.35,1.23,6.91.37,3.56-.85,5.99-3.46,5.99-3.46,0,0-3.45-1.66-7.01-.81Z"/><path class="cls-3" d="m125.88,116.19s3.35,1.23,6.91.37c3.56-.85,5.99-3.46,5.99-3.46,0,0-3.45-1.66-7.01-.81-3.56.85-5.88,3.9-5.88,3.9Z"/><path class="cls-3" d="m169.78,96.75s-3.9.32-6.47,2.93c-2.57,2.6-2.85,6.5-2.85,6.5,0,0,3.56-.65,6.13-3.26,2.57-2.6,3.19-6.17,3.19-6.17Z"/><path class="cls-3" d="m196.7,117.59c.83-3.57-.52-6.93-.52-6.93,0,0-3.15,2.31-3.98,5.88s.98,7.03.98,7.03c0,0,2.69-2.42,3.52-5.99Z"/><path class="cls-3" d="m225.7,118.79c.83-3.57-.52-6.93-.52-6.93,0,0-3.15,2.31-3.98,5.88s.98,7.03.98,7.03c0,0,2.69-2.42,3.52-5.99Z"/><path class="cls-3" d="m85.84,147.63s3.96.05,6.73-2.34c2.78-2.39,3.32-6.3,3.32-6.3,0,0-3.64.32-6.42,2.71-2.78,2.39-3.64,5.94-3.64,5.94Z"/><path class="cls-3" d="m84.86,141.59s1.01-3.81-.6-7.12c-1.61-3.31-5.24-4.86-5.24-4.86,0,0-.58,3.6,1.03,6.91,1.61,3.31,4.81,5.06,4.81,5.06Z"/><path class="cls-3" d="m89.86,134.89s2.69-2.42,3.52-5.99c.83-3.57-.52-6.93-.52-6.93,0,0-3.15,2.31-3.98,5.88-.83,3.57.98,7.03.98,7.03Z"/><path class="cls-3" d="m124.7,107.47c2.29-2.86,2.52-6.47,2.52-6.47,0,0-3.84.73-6.13,3.59s-2.16,6.77-2.16,6.77c0,0,3.47-1.02,5.76-3.88Z"/><path class="cls-3" d="m102.2,123.7s-2.28,3.71.36,6.98c2.3,2.85,4.47,5.37,4.47,5.37,0,0-.13-2.68-.74-6.83-.66-4.5-3.26-6.14-4.09-5.52Z"/><path class="cls-3" d="m218.35,128.21s-.13-2.68-.74-6.83c-.66-4.5-3.26-6.14-4.09-5.52,0,0-2.28,3.71.36,6.98,2.3,2.85,4.47,5.37,4.47,5.37Z"/><path class="cls-3" d="m238.7,134.38s1.33-2.32,3.05-6.15c1.87-4.15.56-6.93-.48-6.85,0,0-3.92,1.89-3.46,6.07.41,3.64.88,6.93.88,6.93Z"/><path class="cls-3" d="m132.2,133.16c1.92-4.13.66-6.92-.39-6.86,0,0-3.95,1.84-3.54,6.03.36,3.64.79,6.94.79,6.94,0,0,1.36-2.3,3.14-6.11Z"/><path class="cls-3" d="m124.83,120.9c-1.84-3.16-5.18-4.65-5.18-4.65,0,0-.76,3.88,1.08,7.04,1.84,3.16,5.6,4.41,5.6,4.41,0,0,.34-3.64-1.5-6.8Z"/><path class="cls-3" d="m102.16,115.05c1.21-3.46.23-6.94.23-6.94,0,0-3.38,1.96-4.59,5.42s.22,7.1.22,7.1c0,0,2.94-2.12,4.14-5.57Z"/><path class="cls-3" d="m140.45,103.07c1.95-3.1.98-7.22.98-7.22,0,0-4.72.53-6.67,3.63s-.4,7.59-.4,7.59c0,0,4.14-.9,6.09-4Z"/><path class="cls-3" d="m71.98,136.18c2.29-2.86,2.52-6.47,2.52-6.47,0,0-3.84.73-6.13,3.59-2.29,2.86-2.16,6.77-2.16,6.77,0,0,3.47-1.02,5.76-3.88Z"/><path class="cls-3" d="m86.1,122.14c3.22-1.74,4.91-4.86,4.91-4.86,0,0-3.75-.7-6.97,1.04-3.22,1.74-4.7,5.25-4.7,5.25,0,0,3.54.31,6.76-1.43Z"/><path class="cls-3" d="m52.47,177.27s.49-3.92-1.57-6.95c-2.06-3.03-5.89-4.01-5.89-4.01,0,0-.09,3.65,1.97,6.68,2.06,3.03,5.49,4.28,5.49,4.28Z"/><path class="cls-3" d="m58.22,163.6s-.52-3.56-3-6.25c-2.48-2.69-5.98-3.5-5.98-3.5,0,0,.18,3.87,2.66,6.56,2.48,2.69,6.32,3.19,6.32,3.19Z"/><path class="cls-3" d="m265.28,192.96s-.84-4.03-3.84-7.08-7.01-3.96-7.01-3.96c0,0,1.14,3.74,4.13,6.79,3,3.05,6.72,4.25,6.72,4.25Z"/><path class="cls-3" d="m251.71,155.1s1.42-3.33.68-6.91-3.38-6.07-3.38-6.07c0,0-1.89,3.42-1.14,7.01.75,3.58,3.84,5.97,3.84,5.97Z"/><path class="cls-3" d="m261.5,150.16c.83-3.57-.52-6.93-.52-6.93,0,0-3.15,2.31-3.98,5.88-.83,3.57.98,7.03.98,7.03,0,0,2.69-2.42,3.52-5.99Z"/><path class="cls-3" d="m225.23,153.43c-.83,3.57.98,7.03.98,7.03,0,0,2.69-2.42,3.52-5.99.83-3.57-.52-6.93-.52-6.93,0,0-3.15,2.31-3.98,5.88Z"/><path class="cls-3" d="m229.43,134.19s1.36-2.3,3.14-6.11c1.92-4.13.66-6.92-.39-6.86,0,0-3.95,1.84-3.54,6.03.36,3.64.79,6.94.79,6.94Z"/><path class="cls-3" d="m278.59,183.29s.1-3.91-2.22-6.75c-2.31-2.84-6.16-3.53-6.16-3.53,0,0,.27,3.61,2.58,6.45,2.31,2.84,5.79,3.83,5.79,3.83Z"/><path class="cls-3" d="m204.1,124.61c1.84,3.16,5.6,4.41,5.6,4.41,0,0,.34-3.64-1.5-6.8-1.84-3.16-5.18-4.65-5.18-4.65,0,0-.76,3.88,1.08,7.04Z"/><path class="cls-3" d="m274.86,190.91c3.56-.85,5.99-3.46,5.99-3.46,0,0-3.45-1.66-7.01-.81-3.56.85-5.88,3.9-5.88,3.9,0,0,3.35,1.23,6.91.37Z"/><path class="cls-3" d="m241.67,147.28s2.69-2.42,3.52-5.99c.83-3.57-.52-6.93-.52-6.93,0,0-3.15,2.31-3.98,5.88-.83,3.57.98,7.03.98,7.03Z"/><path class="cls-3" d="m206.13,114.45s-.13-2.68-.74-6.83c-.66-4.5-3.26-6.14-4.09-5.52,0,0-2.28,3.71.36,6.98,2.3,2.85,4.47,5.37,4.47,5.37Z"/><text class="cls-2" transform="translate(59.26 334.29) rotate(38.41)"><tspan x="0" y="0">P</tspan></text><text class="cls-2" transform="translate(73.8 345.62) rotate(31.35)"><tspan x="0" y="0">H</tspan></text><text class="cls-2" transform="translate(90.56 355.72) rotate(23.22)"><tspan x="0" y="0">O</tspan></text><text class="cls-2" transform="translate(112.14 364.55) rotate(15.12)"><tspan x="0" y="0">T</tspan></text><text class="cls-2" transform="translate(130.48 369.43) rotate(7.06)"><tspan x="0" y="0">O</tspan></text><text class="cls-2" transform="translate(153.66 372.06) rotate(-1.9)"><tspan x="0" y="0">G</tspan></text><text class="cls-2" transform="translate(177.54 370.87) rotate(-10.02)"><tspan x="0" y="0">R</tspan></text><text class="cls-2" transform="translate(196.35 367.37) rotate(-17.5)"><tspan x="0" y="0">A</tspan></text><text class="cls-2" transform="translate(215.82 360.95) rotate(-24.91)"><tspan x="0" y="0">P</tspan></text><text class="cls-2" transform="translate(232.6 352.96) rotate(-32.17)"><tspan x="0" y="0">H</tspan></text><text class="cls-2" transform="translate(249.01 342.38) rotate(-39.54)"><tspan x="0" y="0">Y</tspan></text><path class="cls-1" d="m199.16,255.75c.14,0,.28-.01.41-.02,0,0,0,0,0-.01-.17-.03-.34-.04-.51-.09-.2-.06-.41-.12-.6-.23-.42-.23-.52-.54-.34-.99.12-.31.33-.54.63-.68.19-.1.39-.18.59-.24.27-.08.42-.24.52-.5.29-.76.46-1.54.57-2.34.15-1,.14-2,.03-3-.07-.63-.12-1.26-.19-1.89,0-.06-.04-.13-.06-.19-.02,0-.03,0-.05,0,0,.05-.03.09-.03.14,0,.29.01.58.02.86,0,.49-.14.94-.24,1.41-.23,1.13-.59,2.24-.71,3.4-.01.12-.07.25-.14.34-.28.36-.58.71-.88,1.04-.21.23-.47.14-.72.06-.04-.01-.09-.03-.12-.06-.24-.19-.52-.24-.82-.27-.24-.02-.47-.08-.71-.14-.08-.02-.15-.07-.22-.12-.19-.14-.26-.34-.13-.53.14-.21.3-.41.48-.57.22-.19.46-.36.71-.51.31-.19.5-.44.6-.8.27-1,.27-1.99-.03-2.97-.1-.32-.26-.61-.39-.93-.41-1.04-.65-2.12-.78-3.23-.04-.34-.15-.59-.41-.83-.34-.31-.65-.66-.84-1.1-.02-.04-.09-.06-.13-.09-.06-.04-.15-.08-.17-.14-.35-.82-.7-1.65-.85-2.53-.05-.3-.07-.6-.06-.9.02-.29-.02-.56-.11-.83-.33-1.03-.6-2.08-.74-3.16-.07-.54-.1-1.08-.05-1.63.02-.21.08-.42.12-.63.05-.24,0-.43-.17-.61-.44-.45-.91-.84-1.53-1.01-.13-.04-.27-.06-.41-.07-.49-.03-.87-.29-1.18-.65-.35-.41-.68-.84-1.01-1.26-.05-.07-.1-.14-.15-.22-.13-.2-.19-.42-.14-.66.04-.21.05-.42.08-.64.05-.32.19-.51.53-.62.76-.24,1.51-.53,2.27-.77.27-.09.39-.23.46-.49.16-.63.39-1.24.77-1.78.1-.14.21-.27.34-.39.09-.09.12-.16.1-.29-.12-.63-.22-1.27-.33-1.91-.02-.1-.02-.19-.01-.29.02-.31.23-.45.51-.32.15.07.29.18.42.3.45.42.94.8,1.47,1.12.39.23.78.45,1.23.55.12.03.24.03.38.05-.03-.31-.07-.59-.09-.86-.02-.17-.03-.34-.02-.51,0-.24.07-.28.29-.2.37.14.75.26,1.07.5.42.31.73.71.99,1.16.04.06.11.13.18.15.94.2,1.65.75,2.25,1.46.86,1.01,1.37,2.21,1.76,3.46.38,1.23.6,2.5.75,3.78,0,.06.03.11.02.17-.04.27.14.33.34.41.74.28,1.48.57,2.22.86.17.07.33.17.49.26.09.05.2.11.25.2.12.2.32.24.52.28.95.18,1.9.36,2.82.68.14.05.28.11.42.16.14.05.15.04.16-.12.11-1.22.49-2.32,1.39-3.18.69-.65,1.5-1.05,2.47-1.06.8,0,1.57.16,2.27.53,1.95,1.02,3.01,2.63,3.21,4.82.06.72-.1,1.4-.3,2.08-.2.68-.37,1.37-.53,2.06-.03.13-.02.29.03.41.2.5.38,1.01.63,1.49.52,1.02.86,2.09,1.09,3.21.19.89.32,1.78.33,2.69,0,.67-.03,1.34-.21,1.99-.04.14-.05.3-.03.44.04.58.08,1.17.16,1.75.03.27.15.53.22.79.17.65.28,1.31.21,1.97-.03.32.02.6.12.89.28.84.49,1.69.5,2.58,0,.37-.06.73-.21,1.07-.18.42-.51.59-.94.57-.31-.01-.62-.05-.93-.11-.58-.12-.92-.77-.67-1.31.09-.19.2-.38.32-.55.27-.41.36-.84.21-1.32-.2-.66-.35-1.34-.53-2.01-.08-.28-.18-.56-.31-.82-.1-.2-.25-.37-.39-.54-.23-.28-.49-.54-.71-.82-.81-1.08-1.54-2.2-2.23-3.36-.07-.12-.13-.24-.2-.35-.03-.04-.1-.05-.14-.08-.01.04-.04.09-.03.13.05.23.09.45.17.67.17.5.35.99.53,1.48.12.33.07.64-.02.97-.27.97-.54,1.93-.81,2.9-.08.28-.2.53-.38.75-.33.4-.66.81-.99,1.21-.16.19-.35.25-.61.2-.33-.06-.62-.18-.89-.37-.23-.16-.48-.3-.74-.4-.27-.11-.43-.35-.35-.65.12-.41.35-.7.79-.8.09-.02.18-.05.27-.07.32-.05.51-.23.62-.53.15-.43.32-.85.46-1.28.16-.45.1-.88-.17-1.29-.74-1.13-1.46-2.27-2.17-3.41-.15-.24-.25-.52-.35-.79-.18-.48-.43-.92-.77-1.3-.27-.29-.6-.38-.98-.28-.32.08-.64.18-.96.28-.64.19-1.28.3-1.95.28-.74-.02-1.49,0-2.27,0,0,.31-.02.61-.02.91,0,.9-.02,1.8-.19,2.7-.1.53-.18,1.06-.23,1.59-.11,1.05-.32,2.06-.72,3.04-.27.66-.48,1.35-.75,2.01-.2.49-.53.9-.91,1.27-.06.06-.14.1-.21.16l-1.86-.23Z"/></svg>